<?xml version="1.0" encoding="utf-8"?>
<!-- Svg Vector Icons : http://www.onlinewebfonts.com/icon -->
<!DOCTYPE svg PUBLIC "-//W3C//DTD SVG 1.1//EN" "http://www.w3.org/Graphics/SVG/1.1/DTD/svg11.dtd">
<svg version="1.1" xmlns="http://www.w3.org/2000/svg" xmlns:xlink="http://www.w3.org/1999/xlink" x="0px" y="0px" viewBox="0 0 256 256" enable-background="new 0 0 256 256" xml:space="preserve">
<metadata> Svg Vector Icons : http://www.onlinewebfonts.com/icon </metadata>
<g><g><path fill="#000000" d="M233.8,225.4H22.2c-7.6,0-12.2-6.2-12.2-12.2V42.8c0-7.6,6.2-12.2,12.2-12.2h211.6c7.6,0,12.2,6.2,12.2,12.2v170.4C246,220.8,239.8,225.4,233.8,225.4z M27.9,207.5h200.2v-159H27.9V207.5z"/><path fill="#000000" d="M86.5,105.5c-1.9,0-3.8-0.7-5.3-2.2L61.9,83.9c-2.9-2.9-2.9-7.6,0-10.5c2.9-2.9,7.6-2.9,10.5,0l19.4,19.4c2.9,2.9,2.9,7.6,0,10.5C90.3,104.8,88.4,105.5,86.5,105.5z"/><path fill="#000000" d="M67.2,105.5c-1.9,0-3.8-0.7-5.3-2.2c-2.9-2.9-2.9-7.6,0-10.5l19.4-19.4c2.9-2.9,7.6-2.9,10.5,0c2.9,2.9,2.9,7.6,0,10.5l-19.4,19.4C71,104.8,69.1,105.5,67.2,105.5z"/><path fill="#000000" d="M188.9,105.5c-1.9,0-3.8-0.7-5.3-2.2l-19.4-19.4c-2.9-2.9-2.9-7.6,0-10.5c2.9-2.9,7.6-2.9,10.5,0l19.4,19.4c2.9,2.9,2.9,7.6,0,10.5C192.7,104.8,190.8,105.5,188.9,105.5z"/><path fill="#000000" d="M169.5,105.5c-1.9,0-3.8-0.7-5.3-2.2c-2.9-2.9-2.9-7.6,0-10.5l19.4-19.4c2.9-2.9,7.6-2.9,10.5,0c2.9,2.9,2.9,7.6,0,10.5l-19.4,19.4C173.3,104.8,171.4,105.5,169.5,105.5z"/><path fill="#000000" d="M193.6,178.6H62.4c-4.1,0-7.5-3.3-7.5-7.5s3.3-7.5,7.5-7.5h131.2c4.1,0,7.5,3.3,7.5,7.5C201.1,175.2,197.7,178.6,193.6,178.6z"/><path fill="#000000" d="M138.2,167.1v20.7c0,0,0,14.9,14.9,14.9h16c0,0,14.9,0,14.9-14.9v-20.7H138.2z"/></g></g>
</svg>