<?xml version="1.0" encoding="utf-8"?>
<!-- Generator: Adobe Illustrator 27.5.0, SVG Export Plug-In . SVG Version: 6.00 Build 0)  -->
<svg version="1.1" xmlns="http://www.w3.org/2000/svg" xmlns:xlink="http://www.w3.org/1999/xlink" x="0px" y="0px"
	 viewBox="0 0 600 400" style="enable-background:new 0 0 600 400;" xml:space="preserve">
<g id="background">
	<rect y="0" style="fill:#FFFFFF;" width="600" height="400"/>
</g>
<g id="objects">
	<g>
		<g>
			<path style="fill:#BEBFC2;" d="M561,314.5H39c-9.389,0-17-7.611-17-17v-195c0-9.389,7.611-17,17-17h522c9.389,0,17,7.611,17,17
				v195C578,306.889,570.389,314.5,561,314.5z"/>
			<path style="fill:#A0A0A0;" d="M578,102.5v195c0,9.39-7.61,17-17,17h-5c9.39,0,17-7.61,17-17v-195c0-9.39-7.61-17-17-17h5
				C570.39,85.5,578,93.11,578,102.5z"/>
			<path style="fill:#FFFFFF;" d="M113,123.5H89c-2.209,0-4-1.791-4-4v-24c0-2.209,1.791-4,4-4h24c2.209,0,4,1.791,4,4v24
				C117,121.709,115.209,123.5,113,123.5z"/>
			<path style="fill:#FFFFFF;" d="M80,119.5v-24c0-2.209-1.791-4-4-4H40c-6.627,0-12,5.373-12,12v16c0,2.209,1.791,4,4,4h44
				C78.209,123.5,80,121.709,80,119.5z"/>
			<path style="fill:#FFFFFF;" d="M155,119.5v-24c0-2.209-1.791-4-4-4h-24c-2.209,0-4,1.791-4,4v24c0,2.209,1.791,4,4,4h24
				C153.209,123.5,155,121.709,155,119.5z"/>
			<path style="fill:#FFFFFF;" d="M193,119.5v-24c0-2.209-1.791-4-4-4h-24c-2.209,0-4,1.791-4,4v24c0,2.209,1.791,4,4,4h24
				C191.209,123.5,193,121.709,193,119.5z"/>
			<path style="fill:#FFFFFF;" d="M231,119.5v-24c0-2.209-1.791-4-4-4h-24c-2.209,0-4,1.791-4,4v24c0,2.209,1.791,4,4,4h24
				C229.209,123.5,231,121.709,231,119.5z"/>
			<path style="fill:#FFFFFF;" d="M269,119.5v-24c0-2.209-1.791-4-4-4h-24c-2.209,0-4,1.791-4,4v24c0,2.209,1.791,4,4,4h24
				C267.21,123.5,269,121.709,269,119.5z"/>
			<path style="fill:#FFFFFF;" d="M307,119.5v-24c0-2.209-1.791-4-4-4h-24c-2.209,0-4,1.791-4,4v24c0,2.209,1.791,4,4,4h24
				C305.209,123.5,307,121.709,307,119.5z"/>
			<path style="fill:#FFFFFF;" d="M345,119.5v-24c0-2.209-1.791-4-4-4h-24c-2.209,0-4,1.791-4,4v24c0,2.209,1.791,4,4,4h24
				C343.209,123.5,345,121.709,345,119.5z"/>
			<path style="fill:#FFFFFF;" d="M383,119.5v-24c0-2.209-1.791-4-4-4h-24c-2.209,0-4,1.791-4,4v24c0,2.209,1.791,4,4,4h24
				C381.209,123.5,383,121.709,383,119.5z"/>
			<path style="fill:#FFFFFF;" d="M421,119.5v-24c0-2.209-1.791-4-4-4h-24c-2.209,0-4,1.791-4,4v24c0,2.209,1.791,4,4,4h24
				C419.209,123.5,421,121.709,421,119.5z"/>
			<path style="fill:#FFFFFF;" d="M459,119.5v-24c0-2.209-1.791-4-4-4h-24c-2.209,0-4,1.791-4,4v24c0,2.209,1.791,4,4,4h24
				C457.209,123.5,459,121.709,459,119.5z"/>
			<path style="fill:#FFFFFF;" d="M497,119.5v-24c0-2.209-1.791-4-4-4h-24c-2.209,0-4,1.791-4,4v24c0,2.209,1.791,4,4,4h24
				C495.209,123.5,497,121.709,497,119.5z"/>
			<path style="fill:#FFFFFF;" d="M535,119.5v-24c0-2.209-1.791-4-4-4h-24c-2.209,0-4,1.791-4,4v24c0,2.209,1.791,4,4,4h24
				C533.209,123.5,535,121.709,535,119.5z"/>
			<path style="fill:#FFFFFF;" d="M98,156.5v-24c0-2.209-1.791-4-4-4H70c-2.209,0-4,1.791-4,4v24c0,2.209,1.791,4,4,4h24
				C96.209,160.5,98,158.709,98,156.5z"/>
			<path style="fill:#FFFFFF;" d="M60,156.5v-24c0-2.209-1.791-4-4-4H32c-2.209,0-4,1.791-4,4v24c0,2.209,1.791,4,4,4h24
				C58.209,160.5,60,158.709,60,156.5z"/>
			<path style="fill:#FFFFFF;" d="M136,156.5v-24c0-2.209-1.791-4-4-4h-24c-2.209,0-4,1.791-4,4v24c0,2.209,1.791,4,4,4h24
				C134.209,160.5,136,158.709,136,156.5z"/>
			<path style="fill:#FFFFFF;" d="M174,156.5v-24c0-2.209-1.791-4-4-4h-24c-2.209,0-4,1.791-4,4v24c0,2.209,1.791,4,4,4h24
				C172.209,160.5,174,158.709,174,156.5z"/>
			<path style="fill:#FFFFFF;" d="M212,156.5v-24c0-2.209-1.791-4-4-4h-24c-2.209,0-4,1.791-4,4v24c0,2.209,1.791,4,4,4h24
				C210.209,160.5,212,158.709,212,156.5z"/>
			<path style="fill:#FFFFFF;" d="M250,156.5v-24c0-2.209-1.791-4-4-4h-24c-2.209,0-4,1.791-4,4v24c0,2.209,1.791,4,4,4h24
				C248.21,160.5,250,158.709,250,156.5z"/>
			<path style="fill:#FFFFFF;" d="M288,156.5v-24c0-2.209-1.791-4-4-4h-24c-2.209,0-4,1.791-4,4v24c0,2.209,1.791,4,4,4h24
				C286.209,160.5,288,158.709,288,156.5z"/>
			<path style="fill:#FFFFFF;" d="M326,156.5v-24c0-2.209-1.791-4-4-4h-24c-2.209,0-4,1.791-4,4v24c0,2.209,1.791,4,4,4h24
				C324.209,160.5,326,158.709,326,156.5z"/>
			<path style="fill:#FFFFFF;" d="M364,156.5v-24c0-2.209-1.791-4-4-4h-24c-2.209,0-4,1.791-4,4v24c0,2.209,1.791,4,4,4h24
				C362.209,160.5,364,158.709,364,156.5z"/>
			<path style="fill:#FFFFFF;" d="M402,156.5v-24c0-2.209-1.791-4-4-4h-24c-2.209,0-4,1.791-4,4v24c0,2.209,1.791,4,4,4h24
				C400.209,160.5,402,158.709,402,156.5z"/>
			<path style="fill:#FFFFFF;" d="M440,156.5v-24c0-2.209-1.791-4-4-4h-24c-2.209,0-4,1.791-4,4v24c0,2.209,1.791,4,4,4h24
				C438.209,160.5,440,158.709,440,156.5z"/>
			<path style="fill:#FFFFFF;" d="M478,156.5v-24c0-2.209-1.791-4-4-4h-24c-2.209,0-4,1.791-4,4v24c0,2.209,1.791,4,4,4h24
				C476.209,160.5,478,158.709,478,156.5z"/>
			<path style="fill:#FFFFFF;" d="M516,156.5v-24c0-2.209-1.791-4-4-4h-24c-2.209,0-4,1.791-4,4v24c0,2.209,1.791,4,4,4h24
				C514.209,160.5,516,158.709,516,156.5z"/>
			<path style="fill:#FFFFFF;" d="M573,156.5v-24c0-2.209-1.791-4-4-4h-44c-2.209,0-4,1.791-4,4v24c0,2.209,1.791,4,4,4h44
				C571.209,160.5,573,158.709,573,156.5z"/>
			<path style="fill:#FFFFFF;" d="M507,197.5h24c2.209,0,4-1.791,4-4v-24c0-2.209-1.791-4-4-4h-24c-2.209,0-4,1.791-4,4v24
				C503,195.709,504.791,197.5,507,197.5z"/>
			<path style="fill:#FFFFFF;" d="M545,197.5h24c2.209,0,4-1.791,4-4v-24c0-2.209-1.791-4-4-4h-24c-2.209,0-4,1.791-4,4v24
				C541,195.709,542.791,197.5,545,197.5z"/>
			<path style="fill:#FFFFFF;" d="M469,197.5h24c2.209,0,4-1.791,4-4v-24c0-2.209-1.791-4-4-4h-24c-2.209,0-4,1.791-4,4v24
				C465,195.709,466.791,197.5,469,197.5z"/>
			<path style="fill:#FFFFFF;" d="M431,197.5h24c2.209,0,4-1.791,4-4v-24c0-2.209-1.791-4-4-4h-24c-2.209,0-4,1.791-4,4v24
				C427,195.709,428.791,197.5,431,197.5z"/>
			<path style="fill:#FFFFFF;" d="M393,197.5h24c2.209,0,4-1.791,4-4v-24c0-2.209-1.791-4-4-4h-24c-2.209,0-4,1.791-4,4v24
				C389,195.709,390.791,197.5,393,197.5z"/>
			<path style="fill:#FFFFFF;" d="M355,197.5h24c2.209,0,4-1.791,4-4v-24c0-2.209-1.791-4-4-4h-24c-2.209,0-4,1.791-4,4v24
				C351,195.709,352.79,197.5,355,197.5z"/>
			<path style="fill:#FFFFFF;" d="M317,197.5h24c2.209,0,4-1.791,4-4v-24c0-2.209-1.791-4-4-4h-24c-2.209,0-4,1.791-4,4v24
				C313,195.709,314.791,197.5,317,197.5z"/>
			<path style="fill:#FFFFFF;" d="M279,197.5h24c2.209,0,4-1.791,4-4v-24c0-2.209-1.791-4-4-4h-24c-2.209,0-4,1.791-4,4v24
				C275,195.709,276.791,197.5,279,197.5z"/>
			<path style="fill:#FFFFFF;" d="M241,197.5h24c2.209,0,4-1.791,4-4v-24c0-2.209-1.791-4-4-4h-24c-2.209,0-4,1.791-4,4v24
				C237,195.709,238.791,197.5,241,197.5z"/>
			<path style="fill:#FFFFFF;" d="M203,197.5h24c2.209,0,4-1.791,4-4v-24c0-2.209-1.791-4-4-4h-24c-2.209,0-4,1.791-4,4v24
				C199,195.709,200.791,197.5,203,197.5z"/>
			<path style="fill:#FFFFFF;" d="M165,197.5h24c2.209,0,4-1.791,4-4v-24c0-2.209-1.791-4-4-4h-24c-2.209,0-4,1.791-4,4v24
				C161,195.709,162.791,197.5,165,197.5z"/>
			<path style="fill:#FFFFFF;" d="M127,197.5h24c2.209,0,4-1.791,4-4v-24c0-2.209-1.791-4-4-4h-24c-2.209,0-4,1.791-4,4v24
				C123,195.709,124.791,197.5,127,197.5z"/>
			<path style="fill:#FFFFFF;" d="M89,197.5h24c2.209,0,4-1.791,4-4v-24c0-2.209-1.791-4-4-4H89c-2.209,0-4,1.791-4,4v24
				C85,195.709,86.791,197.5,89,197.5z"/>
			<path style="fill:#FFFFFF;" d="M516,234.5h53c2.209,0,4-1.791,4-4v-24c0-2.209-1.791-4-4-4h-53c-2.209,0-4,1.791-4,4v24
				C512,232.709,513.791,234.5,516,234.5z"/>
			<path style="fill:#FFFFFF;" d="M32,234.5h53c2.209,0,4-1.791,4-4v-24c0-2.209-1.791-4-4-4H32c-2.209,0-4,1.791-4,4v24
				C28,232.709,29.791,234.5,32,234.5z"/>
			<path style="fill:#FFFFFF;" d="M478,234.5h24c2.209,0,4-1.791,4-4v-24c0-2.209-1.791-4-4-4h-24c-2.209,0-4,1.791-4,4v24
				C474,232.709,475.791,234.5,478,234.5z"/>
			<path style="fill:#FFFFFF;" d="M440,234.5h24c2.209,0,4-1.791,4-4v-24c0-2.209-1.791-4-4-4h-24c-2.209,0-4,1.791-4,4v24
				C436,232.709,437.791,234.5,440,234.5z"/>
			<path style="fill:#FFFFFF;" d="M402,234.5h24c2.209,0,4-1.791,4-4v-24c0-2.209-1.791-4-4-4h-24c-2.209,0-4,1.791-4,4v24
				C398,232.709,399.791,234.5,402,234.5z"/>
			<path style="fill:#FFFFFF;" d="M364,234.5h24c2.209,0,4-1.791,4-4v-24c0-2.209-1.791-4-4-4h-24c-2.209,0-4,1.791-4,4v24
				C360,232.709,361.79,234.5,364,234.5z"/>
			<path style="fill:#FFFFFF;" d="M326,234.5h24c2.209,0,4-1.791,4-4v-24c0-2.209-1.791-4-4-4h-24c-2.209,0-4,1.791-4,4v24
				C322,232.709,323.791,234.5,326,234.5z"/>
			<path style="fill:#FFFFFF;" d="M288,234.5h24c2.209,0,4-1.791,4-4v-24c0-2.209-1.791-4-4-4h-24c-2.209,0-4,1.791-4,4v24
				C284,232.709,285.791,234.5,288,234.5z"/>
			<path style="fill:#FFFFFF;" d="M250,234.5h24c2.209,0,4-1.791,4-4v-24c0-2.209-1.791-4-4-4h-24c-2.209,0-4,1.791-4,4v24
				C246,232.709,247.791,234.5,250,234.5z"/>
			<path style="fill:#FFFFFF;" d="M212,234.5h24c2.209,0,4-1.791,4-4v-24c0-2.209-1.791-4-4-4h-24c-2.209,0-4,1.791-4,4v24
				C208,232.709,209.791,234.5,212,234.5z"/>
			<path style="fill:#FFFFFF;" d="M174,234.5h24c2.209,0,4-1.791,4-4v-24c0-2.209-1.791-4-4-4h-24c-2.209,0-4,1.791-4,4v24
				C170,232.709,171.791,234.5,174,234.5z"/>
			<path style="fill:#FFFFFF;" d="M136,234.5h24c2.209,0,4-1.791,4-4v-24c0-2.209-1.791-4-4-4h-24c-2.209,0-4,1.791-4,4v24
				C132,232.709,133.791,234.5,136,234.5z"/>
			<path style="fill:#FFFFFF;" d="M98,234.5h24c2.209,0,4-1.791,4-4v-24c0-2.209-1.791-4-4-4H98c-2.209,0-4,1.791-4,4v24
				C94,232.709,95.791,234.5,98,234.5z"/>
			<path style="fill:#FFFFFF;" d="M498,271.5h71c2.209,0,4-1.791,4-4v-24c0-2.209-1.791-4-4-4h-71c-2.209,0-4,1.791-4,4v24
				C494,269.709,495.791,271.5,498,271.5z"/>
			<path style="fill:#FFFFFF;" d="M460,271.5h24c2.209,0,4-1.791,4-4v-24c0-2.209-1.791-4-4-4h-24c-2.209,0-4,1.791-4,4v24
				C456,269.709,457.791,271.5,460,271.5z"/>
			<path style="fill:#FFFFFF;" d="M422,271.5h24c2.209,0,4-1.791,4-4v-24c0-2.209-1.791-4-4-4h-24c-2.209,0-4,1.791-4,4v24
				C418,269.709,419.791,271.5,422,271.5z"/>
			<path style="fill:#FFFFFF;" d="M384,271.5h24c2.209,0,4-1.791,4-4v-24c0-2.209-1.791-4-4-4h-24c-2.209,0-4,1.791-4,4v24
				C380,269.709,381.79,271.5,384,271.5z"/>
			<path style="fill:#FFFFFF;" d="M346,271.5h24c2.209,0,4-1.791,4-4v-24c0-2.209-1.791-4-4-4h-24c-2.209,0-4,1.791-4,4v24
				C342,269.709,343.79,271.5,346,271.5z"/>
			<path style="fill:#FFFFFF;" d="M308,271.5h24c2.209,0,4-1.791,4-4v-24c0-2.209-1.791-4-4-4h-24c-2.209,0-4,1.791-4,4v24
				C304,269.709,305.791,271.5,308,271.5z"/>
			<path style="fill:#FFFFFF;" d="M270,271.5h24c2.209,0,4-1.791,4-4v-24c0-2.209-1.791-4-4-4h-24c-2.209,0-4,1.791-4,4v24
				C266,269.709,267.791,271.5,270,271.5z"/>
			<path style="fill:#FFFFFF;" d="M232,271.5h24c2.209,0,4-1.791,4-4v-24c0-2.209-1.791-4-4-4h-24c-2.209,0-4,1.791-4,4v24
				C228,269.709,229.791,271.5,232,271.5z"/>
			<path style="fill:#FFFFFF;" d="M194,271.5h24c2.209,0,4-1.791,4-4v-24c0-2.209-1.791-4-4-4h-24c-2.209,0-4,1.791-4,4v24
				C190,269.709,191.791,271.5,194,271.5z"/>
			<path style="fill:#FFFFFF;" d="M156,271.5h24c2.209,0,4-1.791,4-4v-24c0-2.209-1.791-4-4-4h-24c-2.209,0-4,1.791-4,4v24
				C152,269.709,153.791,271.5,156,271.5z"/>
			<path style="fill:#FFFFFF;" d="M118,271.5h24c2.209,0,4-1.791,4-4v-24c0-2.209-1.791-4-4-4h-24c-2.209,0-4,1.791-4,4v24
				C114,269.709,115.791,271.5,118,271.5z"/>
			<path style="fill:#FFFFFF;" d="M32,271.5h72c2.209,0,4-1.791,4-4v-24c0-2.209-1.791-4-4-4H32c-2.209,0-4,1.791-4,4v24
				C28,269.709,29.791,271.5,32,271.5z"/>
			<path style="fill:#FFFFFF;" d="M32,197.5h44c2.209,0,4-1.791,4-4v-24c0-2.209-1.791-4-4-4H32c-2.209,0-4,1.791-4,4v24
				C28,195.709,29.791,197.5,32,197.5z"/>
			<path style="fill:#FFFFFF;" d="M573,119.5v-16c0-6.627-5.373-12-12-12h-16c-2.209,0-4,1.791-4,4v24c0,2.209,1.791,4,4,4h24
				C571.209,123.5,573,121.709,573,119.5z"/>
			<path style="fill:#FFFFFF;" d="M142,280.5v24c0,2.209,1.791,4,4,4h34c2.209,0,4-1.791,4-4v-24c0-2.209-1.791-4-4-4h-34
				C143.791,276.5,142,278.291,142,280.5z"/>
			<path style="fill:#FFFFFF;" d="M190,280.5v24c0,2.209,1.791,4,4,4h176c2.209,0,4-1.791,4-4v-24c0-2.209-1.791-4-4-4H194
				C191.791,276.5,190,278.291,190,280.5z"/>
			<path style="fill:#FFFFFF;" d="M104,280.5v24c0,2.209,1.791,4,4,4h24c2.209,0,4-1.791,4-4v-24c0-2.209-1.791-4-4-4h-24
				C105.791,276.5,104,278.291,104,280.5z"/>
			<path style="fill:#FFFFFF;" d="M66,280.5v24c0,2.209,1.791,4,4,4h24c2.209,0,4-1.791,4-4v-24c0-2.209-1.791-4-4-4H70
				C67.791,276.5,66,278.291,66,280.5z"/>
			<path style="fill:#FFFFFF;" d="M418,276.5h-34c-2.209,0-4,1.791-4,4v24c0,2.209,1.791,4,4,4h34c2.209,0,4-1.791,4-4v-24
				C422,278.291,420.209,276.5,418,276.5z"/>
			<path style="fill:#FFFFFF;" d="M456,276.5h-24c-2.209,0-4,1.791-4,4v24c0,2.209,1.791,4,4,4h24c2.209,0,4-1.791,4-4v-24
				C460,278.291,458.209,276.5,456,276.5z"/>
			<path style="fill:#FFFFFF;" d="M494,276.5h-24c-2.209,0-4,1.791-4,4v24c0,2.209,1.791,4,4,4h24c2.209,0,4-1.791,4-4v-24
				C498,278.291,496.209,276.5,494,276.5z"/>
			<path style="fill:#FFFFFF;" d="M532,276.5h-24c-2.209,0-4,1.791-4,4v24c0,2.209,1.791,4,4,4h24c2.209,0,4-1.791,4-4v-24
				C536,278.291,534.209,276.5,532,276.5z"/>
			<path style="fill:#FFFFFF;" d="M569,276.5h-24c-2.209,0-4,1.791-4,4v24c0,2.209,1.791,4,4,4h16c6.627,0,12-5.373,12-12v-16
				C573,278.291,571.209,276.5,569,276.5z"/>
			<path style="fill:#FFFFFF;" d="M28,280.5v16c0,6.627,5.373,12,12,12h16c2.209,0,4-1.791,4-4v-24c0-2.209-1.791-4-4-4H32
				C29.791,276.5,28,278.291,28,280.5z"/>
			<line style="fill:#FFFFFF;" x1="504" y1="292.5" x2="536" y2="292.5"/>
			<path style="fill:#DDDDDD;" d="M512,132.5v24c0,2.209-1.791,4-4,4h4c2.209,0,4-1.791,4-4v-24c0-2.209-1.791-4-4-4h-4
				C510.209,128.5,512,130.291,512,132.5z"/>
			<path style="fill:#DDDDDD;" d="M422,234.5h4c2.209,0,4-1.791,4-4v-24c0-2.209-1.791-4-4-4h-4c2.209,0,4,1.791,4,4v24
				C426,232.709,424.209,234.5,422,234.5z"/>
			<path style="fill:#DDDDDD;" d="M527,197.5h4c2.209,0,4-1.791,4-4v-24c0-2.209-1.791-4-4-4h-4c2.209,0,4,1.791,4,4v24
				C531,195.709,529.209,197.5,527,197.5z"/>
			<path style="fill:#DDDDDD;" d="M498,234.5h4c2.209,0,4-1.791,4-4v-24c0-2.209-1.791-4-4-4h-4c2.209,0,4,1.791,4,4v24
				C502,232.709,500.209,234.5,498,234.5z"/>
			<path style="fill:#DDDDDD;" d="M132,132.5v24c0,2.209-1.791,4-4,4h4c2.209,0,4-1.791,4-4v-24c0-2.209-1.791-4-4-4h-4
				C130.209,128.5,132,130.291,132,132.5z"/>
			<path style="fill:#DDDDDD;" d="M455,169.5v24c0,2.209-1.791,4-4,4h4c2.209,0,4-1.791,4-4v-24c0-2.209-1.791-4-4-4h-4
				C453.209,165.5,455,167.291,455,169.5z"/>
			<path style="fill:#DDDDDD;" d="M417,169.5v24c0,2.209-1.791,4-4,4h4c2.209,0,4-1.791,4-4v-24c0-2.209-1.791-4-4-4h-4
				C415.209,165.5,417,167.291,417,169.5z"/>
			<path style="fill:#DDDDDD;" d="M404,271.5h4c2.209,0,4-1.791,4-4v-24c0-2.209-1.791-4-4-4h-4c2.209,0,4,1.791,4,4v24
				C408,269.709,406.209,271.5,404,271.5z"/>
			<path style="fill:#DDDDDD;" d="M170,132.5v24c0,2.209-1.791,4-4,4h4c2.209,0,4-1.791,4-4v-24c0-2.209-1.791-4-4-4h-4
				C168.209,128.5,170,130.291,170,132.5z"/>
			<path style="fill:#DDDDDD;" d="M208,132.5v24c0,2.209-1.791,4-4,4h4c2.209,0,4-1.791,4-4v-24c0-2.209-1.791-4-4-4h-4
				C206.209,128.5,208,130.291,208,132.5z"/>
			<path style="fill:#DDDDDD;" d="M246,132.5v24c0,2.209-1.791,4-4,4h4c2.209,0,4-1.791,4-4v-24c0-2.209-1.791-4-4-4h-4
				C244.21,128.5,246,130.291,246,132.5z"/>
			<path style="fill:#DDDDDD;" d="M284,132.5v24c0,2.209-1.791,4-4,4h4c2.209,0,4-1.791,4-4v-24c0-2.209-1.791-4-4-4h-4
				C282.209,128.5,284,130.291,284,132.5z"/>
			<path style="fill:#DDDDDD;" d="M493,169.5v24c0,2.209-1.791,4-4,4h4c2.209,0,4-1.791,4-4v-24c0-2.209-1.791-4-4-4h-4
				C491.209,165.5,493,167.291,493,169.5z"/>
			<path style="fill:#DDDDDD;" d="M360,132.5v24c0,2.209-1.791,4-4,4h4c2.209,0,4-1.791,4-4v-24c0-2.209-1.791-4-4-4h-4
				C358.209,128.5,360,130.291,360,132.5z"/>
			<path style="fill:#DDDDDD;" d="M322,132.5v24c0,2.209-1.791,4-4,4h4c2.209,0,4-1.791,4-4v-24c0-2.209-1.791-4-4-4h-4
				C320.209,128.5,322,130.291,322,132.5z"/>
			<path style="fill:#DDDDDD;" d="M398,132.5v24c0,2.209-1.791,4-4,4h4c2.209,0,4-1.791,4-4v-24c0-2.209-1.791-4-4-4h-4
				C396.209,128.5,398,130.291,398,132.5z"/>
			<path style="fill:#DDDDDD;" d="M436,132.5v24c0,2.209-1.791,4-4,4h4c2.209,0,4-1.791,4-4v-24c0-2.209-1.791-4-4-4h-4
				C434.209,128.5,436,130.291,436,132.5z"/>
			<path style="fill:#DDDDDD;" d="M474,132.5v24c0,2.209-1.791,4-4,4h4c2.209,0,4-1.791,4-4v-24c0-2.209-1.791-4-4-4h-4
				C472.209,128.5,474,130.291,474,132.5z"/>
			<path style="fill:#DDDDDD;" d="M460,234.5h4c2.209,0,4-1.791,4-4v-24c0-2.209-1.791-4-4-4h-4c2.209,0,4,1.791,4,4v24
				C464,232.709,462.209,234.5,460,234.5z"/>
			<path style="fill:#DDDDDD;" d="M341,169.5v24c0,2.209-1.791,4-4,4h4c2.209,0,4-1.791,4-4v-24c0-2.209-1.791-4-4-4h-4
				C339.209,165.5,341,167.291,341,169.5z"/>
			<path style="fill:#DDDDDD;" d="M189,165.5h-4c2.209,0,4,1.791,4,4v24c0,2.209-1.791,4-4,4h4c2.209,0,4-1.791,4-4v-24
				C193,167.291,191.209,165.5,189,165.5z"/>
			<path style="fill:#DDDDDD;" d="M303,169.5v24c0,2.209-1.791,4-4,4h4c2.209,0,4-1.791,4-4v-24c0-2.209-1.791-4-4-4h-4
				C301.209,165.5,303,167.291,303,169.5z"/>
			<path style="fill:#DDDDDD;" d="M151,165.5h-4c2.209,0,4,1.791,4,4v24c0,2.209-1.791,4-4,4h4c2.209,0,4-1.791,4-4v-24
				C155,167.291,153.209,165.5,151,165.5z"/>
			<path style="fill:#DDDDDD;" d="M56,128.5h-4c2.209,0,4,1.791,4,4v24c0,2.209-1.791,4-4,4h4c2.209,0,4-1.791,4-4v-24
				C60,130.291,58.209,128.5,56,128.5z"/>
			<path style="fill:#DDDDDD;" d="M76,169.5v24c0,2.209-1.791,4-4,4h4c2.209,0,4-1.791,4-4v-24c0-2.209-1.791-4-4-4h-4
				C74.209,165.5,76,167.291,76,169.5z"/>
			<path style="fill:#DDDDDD;" d="M265,169.5v24c0,2.209-1.791,4-4,4h4c2.209,0,4-1.791,4-4v-24c0-2.209-1.791-4-4-4h-4
				C263.209,165.5,265,167.291,265,169.5z"/>
			<path style="fill:#DDDDDD;" d="M113,165.5h-4c2.209,0,4,1.791,4,4v24c0,2.209-1.791,4-4,4h4c2.209,0,4-1.791,4-4v-24
				C117,167.291,115.209,165.5,113,165.5z"/>
			<path style="fill:#DDDDDD;" d="M81,234.5h4c2.209,0,4-1.791,4-4v-24c0-2.209-1.791-4-4-4h-4c2.209,0,4,1.791,4,4v24
				C85,232.709,83.209,234.5,81,234.5z"/>
			<path style="fill:#DDDDDD;" d="M290,271.5h4c2.209,0,4-1.791,4-4v-24c0-2.209-1.791-4-4-4h-4c2.209,0,4,1.791,4,4v24
				C294,269.709,292.209,271.5,290,271.5z"/>
			<path style="fill:#DDDDDD;" d="M379,165.5h-4c2.209,0,4,1.791,4,4v24c0,2.209-1.791,4-4,4h4c2.209,0,4-1.791,4-4v-24
				C383,167.291,381.209,165.5,379,165.5z"/>
			<path style="fill:#DDDDDD;" d="M227,169.5v24c0,2.209-1.791,4-4,4h4c2.209,0,4-1.791,4-4v-24c0-2.209-1.791-4-4-4h-4
				C225.209,165.5,227,167.291,227,169.5z"/>
			<path style="fill:#DDDDDD;" d="M308,234.5h4c2.209,0,4-1.791,4-4v-24c0-2.209-1.791-4-4-4h-4c2.209,0,4,1.791,4,4v24
				C312,232.709,310.209,234.5,308,234.5z"/>
			<path style="fill:#DDDDDD;" d="M346,234.5h4c2.209,0,4-1.791,4-4v-24c0-2.209-1.791-4-4-4h-4c2.209,0,4,1.791,4,4v24
				C350,232.709,348.209,234.5,346,234.5z"/>
			<path style="fill:#DDDDDD;" d="M328,271.5h4c2.209,0,4-1.791,4-4v-24c0-2.209-1.791-4-4-4h-4c2.209,0,4,1.791,4,4v24
				C332,269.709,330.209,271.5,328,271.5z"/>
			<path style="fill:#DDDDDD;" d="M214,271.5h4c2.209,0,4-1.791,4-4v-24c0-2.209-1.791-4-4-4h-4c2.209,0,4,1.791,4,4v24
				C218,269.709,216.209,271.5,214,271.5z"/>
			<path style="fill:#DDDDDD;" d="M232,234.5h4c2.209,0,4-1.791,4-4v-24c0-2.209-1.791-4-4-4h-4c2.209,0,4,1.791,4,4v24
				C236,232.709,234.209,234.5,232,234.5z"/>
			<path style="fill:#DDDDDD;" d="M270,234.5h4c2.209,0,4-1.791,4-4v-24c0-2.209-1.791-4-4-4h-4c2.209,0,4,1.791,4,4v24
				C274,232.709,272.209,234.5,270,234.5z"/>
			<path style="fill:#DDDDDD;" d="M252,271.5h4c2.209,0,4-1.791,4-4v-24c0-2.209-1.791-4-4-4h-4c2.209,0,4,1.791,4,4v24
				C256,269.709,254.209,271.5,252,271.5z"/>
			<path style="fill:#DDDDDD;" d="M265,95.5v24c0,2.209-1.791,4-4,4h4c2.209,0,4-1.791,4-4v-24c0-2.209-1.791-4-4-4h-4
				C263.21,91.5,265,93.291,265,95.5z"/>
			<path style="fill:#DDDDDD;" d="M180,239.5h-4c2.209,0,4,1.791,4,4v24c0,2.209-1.791,4-4,4h4c2.209,0,4-1.791,4-4v-24
				C184,241.291,182.209,239.5,180,239.5z"/>
			<path style="fill:#DDDDDD;" d="M180,276.5h-4c2.209,0,4,1.791,4,4v24c0,2.209-1.791,4-4,4h4c2.209,0,4-1.791,4-4v-24
				C184,278.291,182.209,276.5,180,276.5z"/>
			<path style="fill:#DDDDDD;" d="M138,271.5h4c2.209,0,4-1.791,4-4v-24c0-2.209-1.791-4-4-4h-4c2.209,0,4,1.791,4,4v24
				C142,269.709,140.209,271.5,138,271.5z"/>
			<path style="fill:#DDDDDD;" d="M370,276.5h-4c2.209,0,4,1.791,4,4v24c0,2.209-1.791,4-4,4h4c2.209,0,4-1.791,4-4v-24
				C374,278.291,372.209,276.5,370,276.5z"/>
			<path style="fill:#DDDDDD;" d="M56,276.5h-4c2.209,0,4,1.791,4,4v24c0,2.209-1.791,4-4,4h4c2.209,0,4-1.791,4-4v-24
				C60,278.291,58.209,276.5,56,276.5z"/>
			<path style="fill:#DDDDDD;" d="M94,132.5v24c0,2.209-1.791,4-4,4h4c2.209,0,4-1.791,4-4v-24c0-2.209-1.791-4-4-4h-4
				C92.209,128.5,94,130.291,94,132.5z"/>
			<path style="fill:#DDDDDD;" d="M94,276.5h-4c2.209,0,4,1.791,4,4v24c0,2.209-1.791,4-4,4h4c2.209,0,4-1.791,4-4v-24
				C98,278.291,96.209,276.5,94,276.5z"/>
			<path style="fill:#DDDDDD;" d="M100,271.5h4c2.209,0,4-1.791,4-4v-24c0-2.209-1.791-4-4-4h-4c2.209,0,4,1.791,4,4v24
				C104,269.709,102.209,271.5,100,271.5z"/>
			<path style="fill:#DDDDDD;" d="M132,276.5h-4c2.209,0,4,1.791,4,4v24c0,2.209-1.791,4-4,4h4c2.209,0,4-1.791,4-4v-24
				C136,278.291,134.209,276.5,132,276.5z"/>
			<path style="fill:#DDDDDD;" d="M569,128.5h-4c2.209,0,4,1.791,4,4v24c0,2.209-1.791,4-4,4h4c2.209,0,4-1.791,4-4v-24
				C573,130.291,571.209,128.5,569,128.5z"/>
			<path style="fill:#DDDDDD;" d="M569,202.5h-4c2.209,0,4,1.791,4,4v24c0,2.209-1.791,4-4,4h4c2.209,0,4-1.791,4-4v-24
				C573,204.291,571.209,202.5,569,202.5z"/>
			<path style="fill:#DDDDDD;" d="M569,165.5h-4c2.209,0,4,1.791,4,4v24c0,2.209-1.791,4-4,4h4c2.209,0,4-1.791,4-4v-24
				C573,167.291,571.209,165.5,569,165.5z"/>
			<path style="fill:#DDDDDD;" d="M76,95.5v24c0,2.209-1.791,4-4,4h4c2.209,0,4-1.791,4-4v-24c0-2.209-1.791-4-4-4h-4
				C74.209,91.5,76,93.291,76,95.5z"/>
			<path style="fill:#DDDDDD;" d="M561,91.5h-4c6.627,0,12,5.373,12,12v16c0,2.209-1.791,4-4,4h4c2.209,0,4-1.791,4-4v-16
				C573,96.873,567.627,91.5,561,91.5z"/>
			<path style="fill:#DDDDDD;" d="M456,276.5h-4c2.209,0,4,1.791,4,4v24c0,2.209-1.791,4-4,4h4c2.209,0,4-1.791,4-4v-24
				C460,278.291,458.209,276.5,456,276.5z"/>
			<path style="fill:#DDDDDD;" d="M532,276.5h-4c2.209,0,4,1.791,4,4v24c0,2.209-1.791,4-4,4h4c2.209,0,4-1.791,4-4v-24
				C536,278.291,534.209,276.5,532,276.5z"/>
			<path style="fill:#DDDDDD;" d="M494,276.5h-4c2.209,0,4,1.791,4,4v24c0,2.209-1.791,4-4,4h4c2.209,0,4-1.791,4-4v-24
				C498,278.291,496.209,276.5,494,276.5z"/>
			<path style="fill:#DDDDDD;" d="M569,276.5h-4c2.209,0,4,1.791,4,4v16c0,6.627-5.373,12-12,12h4c6.627,0,12-5.373,12-12v-16
				C573,278.291,571.209,276.5,569,276.5z"/>
			<path style="fill:#DDDDDD;" d="M569,239.5h-4c2.209,0,4,1.791,4,4v24c0,2.209-1.791,4-4,4h4c2.209,0,4-1.791,4-4v-24
				C573,241.291,571.209,239.5,569,239.5z"/>
			<path style="fill:#DDDDDD;" d="M418,276.5h-4c2.209,0,4,1.791,4,4v24c0,2.209-1.791,4-4,4h4c2.209,0,4-1.791,4-4v-24
				C422,278.291,420.209,276.5,418,276.5z"/>
			<path style="fill:#DDDDDD;" d="M480,271.5h4c2.209,0,4-1.791,4-4v-24c0-2.209-1.791-4-4-4h-4c2.209,0,4,1.791,4,4v24
				C484,269.709,482.209,271.5,480,271.5z"/>
			<path style="fill:#DDDDDD;" d="M442,271.5h4c2.209,0,4-1.791,4-4v-24c0-2.209-1.791-4-4-4h-4c2.209,0,4,1.791,4,4v24
				C446,269.709,444.209,271.5,442,271.5z"/>
			<path style="fill:#DDDDDD;" d="M531,95.5v24c0,2.209-1.791,4-4,4h4c2.209,0,4-1.791,4-4v-24c0-2.209-1.791-4-4-4h-4
				C529.209,91.5,531,93.291,531,95.5z"/>
			<path style="fill:#DDDDDD;" d="M493,95.5v24c0,2.209-1.791,4-4,4h4c2.209,0,4-1.791,4-4v-24c0-2.209-1.791-4-4-4h-4
				C491.209,91.5,493,93.291,493,95.5z"/>
			<path style="fill:#DDDDDD;" d="M384,234.5h4c2.209,0,4-1.791,4-4v-24c0-2.209-1.791-4-4-4h-4c2.209,0,4,1.791,4,4v24
				C388,232.709,386.209,234.5,384,234.5z"/>
			<path style="fill:#DDDDDD;" d="M113,95.5v24c0,2.209-1.791,4-4,4h4c2.209,0,4-1.791,4-4v-24c0-2.209-1.791-4-4-4h-4
				C111.209,91.5,113,93.291,113,95.5z"/>
			<path style="fill:#DDDDDD;" d="M366,271.5h4c2.209,0,4-1.791,4-4v-24c0-2.209-1.791-4-4-4h-4c2.209,0,4,1.791,4,4v24
				C370,269.709,368.209,271.5,366,271.5z"/>
			<path style="fill:#DDDDDD;" d="M156,234.5h4c2.209,0,4-1.791,4-4v-24c0-2.209-1.791-4-4-4h-4c2.209,0,4,1.791,4,4v24
				C160,232.709,158.209,234.5,156,234.5z"/>
			<path style="fill:#DDDDDD;" d="M194,234.5h4c2.209,0,4-1.791,4-4v-24c0-2.209-1.791-4-4-4h-4c2.209,0,4,1.791,4,4v24
				C198,232.709,196.209,234.5,194,234.5z"/>
			<path style="fill:#DDDDDD;" d="M118,234.5h4c2.209,0,4-1.791,4-4v-24c0-2.209-1.791-4-4-4h-4c2.209,0,4,1.791,4,4v24
				C122,232.709,120.209,234.5,118,234.5z"/>
			<path style="fill:#DDDDDD;" d="M189,95.5v24c0,2.209-1.791,4-4,4h4c2.209,0,4-1.791,4-4v-24c0-2.209-1.791-4-4-4h-4
				C187.209,91.5,189,93.291,189,95.5z"/>
			<path style="fill:#DDDDDD;" d="M227,95.5v24c0,2.209-1.791,4-4,4h4c2.209,0,4-1.791,4-4v-24c0-2.209-1.791-4-4-4h-4
				C225.209,91.5,227,93.291,227,95.5z"/>
			<path style="fill:#DDDDDD;" d="M303,95.5v24c0,2.209-1.791,4-4,4h4c2.209,0,4-1.791,4-4v-24c0-2.209-1.791-4-4-4h-4
				C301.209,91.5,303,93.291,303,95.5z"/>
			<path style="fill:#DDDDDD;" d="M151,95.5v24c0,2.209-1.791,4-4,4h4c2.209,0,4-1.791,4-4v-24c0-2.209-1.791-4-4-4h-4
				C149.209,91.5,151,93.291,151,95.5z"/>
			<path style="fill:#DDDDDD;" d="M417,95.5v24c0,2.209-1.791,4-4,4h4c2.209,0,4-1.791,4-4v-24c0-2.209-1.791-4-4-4h-4
				C415.209,91.5,417,93.291,417,95.5z"/>
			<path style="fill:#DDDDDD;" d="M455,95.5v24c0,2.209-1.791,4-4,4h4c2.209,0,4-1.791,4-4v-24c0-2.209-1.791-4-4-4h-4
				C453.209,91.5,455,93.291,455,95.5z"/>
			<path style="fill:#DDDDDD;" d="M341,95.5v24c0,2.209-1.791,4-4,4h4c2.209,0,4-1.791,4-4v-24c0-2.209-1.791-4-4-4h-4
				C339.209,91.5,341,93.291,341,95.5z"/>
			<path style="fill:#DDDDDD;" d="M379,95.5v24c0,2.209-1.791,4-4,4h4c2.209,0,4-1.791,4-4v-24c0-2.209-1.791-4-4-4h-4
				C377.209,91.5,379,93.291,379,95.5z"/>
		</g>
		<g>
			<path style="fill:none;stroke:#383838;stroke-width:2;stroke-miterlimit:10;" d="M561,314.5H39c-9.389,0-17-7.611-17-17v-195
				c0-9.389,7.611-17,17-17h522c9.389,0,17,7.611,17,17v195C578,306.889,570.389,314.5,561,314.5z"/>
			<path style="fill:none;stroke:#383838;stroke-width:2;stroke-miterlimit:10;" d="M113,123.5H89c-2.209,0-4-1.791-4-4v-24
				c0-2.209,1.791-4,4-4h24c2.209,0,4,1.791,4,4v24C117,121.709,115.209,123.5,113,123.5z"/>
			<path style="fill:none;stroke:#383838;stroke-width:2;stroke-miterlimit:10;" d="M76,123.5H32c-2.209,0-4-1.791-4-4v-16
				c0-6.627,5.373-12,12-12h36c2.209,0,4,1.791,4,4v24C80,121.709,78.209,123.5,76,123.5z"/>
			<path style="fill:none;stroke:#383838;stroke-width:2;stroke-miterlimit:10;" d="M151,123.5h-24c-2.209,0-4-1.791-4-4v-24
				c0-2.209,1.791-4,4-4h24c2.209,0,4,1.791,4,4v24C155,121.709,153.209,123.5,151,123.5z"/>
			<path style="fill:none;stroke:#383838;stroke-width:2;stroke-miterlimit:10;" d="M189,123.5h-24c-2.209,0-4-1.791-4-4v-24
				c0-2.209,1.791-4,4-4h24c2.209,0,4,1.791,4,4v24C193,121.709,191.209,123.5,189,123.5z"/>
			<path style="fill:none;stroke:#383838;stroke-width:2;stroke-miterlimit:10;" d="M227,123.5h-24c-2.209,0-4-1.791-4-4v-24
				c0-2.209,1.791-4,4-4h24c2.209,0,4,1.791,4,4v24C231,121.709,229.209,123.5,227,123.5z"/>
			<path style="fill:none;stroke:#383838;stroke-width:2;stroke-miterlimit:10;" d="M265,123.5h-24c-2.209,0-4-1.791-4-4v-24
				c0-2.209,1.791-4,4-4h24c2.209,0,4,1.791,4,4v24C269,121.709,267.21,123.5,265,123.5z"/>
			<path style="fill:none;stroke:#383838;stroke-width:2;stroke-miterlimit:10;" d="M303,123.5h-24c-2.209,0-4-1.791-4-4v-24
				c0-2.209,1.791-4,4-4h24c2.209,0,4,1.791,4,4v24C307,121.709,305.209,123.5,303,123.5z"/>
			<path style="fill:none;stroke:#383838;stroke-width:2;stroke-miterlimit:10;" d="M341,123.5h-24c-2.209,0-4-1.791-4-4v-24
				c0-2.209,1.791-4,4-4h24c2.209,0,4,1.791,4,4v24C345,121.709,343.209,123.5,341,123.5z"/>
			<path style="fill:none;stroke:#383838;stroke-width:2;stroke-miterlimit:10;" d="M379,123.5h-24c-2.209,0-4-1.791-4-4v-24
				c0-2.209,1.791-4,4-4h24c2.209,0,4,1.791,4,4v24C383,121.709,381.209,123.5,379,123.5z"/>
			<path style="fill:none;stroke:#383838;stroke-width:2;stroke-miterlimit:10;" d="M417,123.5h-24c-2.209,0-4-1.791-4-4v-24
				c0-2.209,1.791-4,4-4h24c2.209,0,4,1.791,4,4v24C421,121.709,419.209,123.5,417,123.5z"/>
			<path style="fill:none;stroke:#383838;stroke-width:2;stroke-miterlimit:10;" d="M455,123.5h-24c-2.209,0-4-1.791-4-4v-24
				c0-2.209,1.791-4,4-4h24c2.209,0,4,1.791,4,4v24C459,121.709,457.209,123.5,455,123.5z"/>
			<path style="fill:none;stroke:#383838;stroke-width:2;stroke-miterlimit:10;" d="M493,123.5h-24c-2.209,0-4-1.791-4-4v-24
				c0-2.209,1.791-4,4-4h24c2.209,0,4,1.791,4,4v24C497,121.709,495.209,123.5,493,123.5z"/>
			<path style="fill:none;stroke:#383838;stroke-width:2;stroke-miterlimit:10;" d="M531,123.5h-24c-2.209,0-4-1.791-4-4v-24
				c0-2.209,1.791-4,4-4h24c2.209,0,4,1.791,4,4v24C535,121.709,533.209,123.5,531,123.5z"/>
			<path style="fill:none;stroke:#383838;stroke-width:2;stroke-miterlimit:10;" d="M94,160.5H70c-2.209,0-4-1.791-4-4v-24
				c0-2.209,1.791-4,4-4h24c2.209,0,4,1.791,4,4v24C98,158.709,96.209,160.5,94,160.5z"/>
			<path style="fill:none;stroke:#383838;stroke-width:2;stroke-miterlimit:10;" d="M56,160.5H32c-2.209,0-4-1.791-4-4v-24
				c0-2.209,1.791-4,4-4h24c2.209,0,4,1.791,4,4v24C60,158.709,58.209,160.5,56,160.5z"/>
			<path style="fill:none;stroke:#383838;stroke-width:2;stroke-miterlimit:10;" d="M132,160.5h-24c-2.209,0-4-1.791-4-4v-24
				c0-2.209,1.791-4,4-4h24c2.209,0,4,1.791,4,4v24C136,158.709,134.209,160.5,132,160.5z"/>
			<path style="fill:none;stroke:#383838;stroke-width:2;stroke-miterlimit:10;" d="M170,160.5h-24c-2.209,0-4-1.791-4-4v-24
				c0-2.209,1.791-4,4-4h24c2.209,0,4,1.791,4,4v24C174,158.709,172.209,160.5,170,160.5z"/>
			<path style="fill:none;stroke:#383838;stroke-width:2;stroke-miterlimit:10;" d="M208,160.5h-24c-2.209,0-4-1.791-4-4v-24
				c0-2.209,1.791-4,4-4h24c2.209,0,4,1.791,4,4v24C212,158.709,210.209,160.5,208,160.5z"/>
			<path style="fill:none;stroke:#383838;stroke-width:2;stroke-miterlimit:10;" d="M246,160.5h-24c-2.209,0-4-1.791-4-4v-24
				c0-2.209,1.791-4,4-4h24c2.209,0,4,1.791,4,4v24C250,158.709,248.21,160.5,246,160.5z"/>
			<path style="fill:none;stroke:#383838;stroke-width:2;stroke-miterlimit:10;" d="M284,160.5h-24c-2.209,0-4-1.791-4-4v-24
				c0-2.209,1.791-4,4-4h24c2.209,0,4,1.791,4,4v24C288,158.709,286.209,160.5,284,160.5z"/>
			<path style="fill:none;stroke:#383838;stroke-width:2;stroke-miterlimit:10;" d="M322,160.5h-24c-2.209,0-4-1.791-4-4v-24
				c0-2.209,1.791-4,4-4h24c2.209,0,4,1.791,4,4v24C326,158.709,324.209,160.5,322,160.5z"/>
			<path style="fill:none;stroke:#383838;stroke-width:2;stroke-miterlimit:10;" d="M360,160.5h-24c-2.209,0-4-1.791-4-4v-24
				c0-2.209,1.791-4,4-4h24c2.209,0,4,1.791,4,4v24C364,158.709,362.209,160.5,360,160.5z"/>
			<path style="fill:none;stroke:#383838;stroke-width:2;stroke-miterlimit:10;" d="M398,160.5h-24c-2.209,0-4-1.791-4-4v-24
				c0-2.209,1.791-4,4-4h24c2.209,0,4,1.791,4,4v24C402,158.709,400.209,160.5,398,160.5z"/>
			<path style="fill:none;stroke:#383838;stroke-width:2;stroke-miterlimit:10;" d="M436,160.5h-24c-2.209,0-4-1.791-4-4v-24
				c0-2.209,1.791-4,4-4h24c2.209,0,4,1.791,4,4v24C440,158.709,438.209,160.5,436,160.5z"/>
			<path style="fill:none;stroke:#383838;stroke-width:2;stroke-miterlimit:10;" d="M474,160.5h-24c-2.209,0-4-1.791-4-4v-24
				c0-2.209,1.791-4,4-4h24c2.209,0,4,1.791,4,4v24C478,158.709,476.209,160.5,474,160.5z"/>
			<path style="fill:none;stroke:#383838;stroke-width:2;stroke-miterlimit:10;" d="M512,160.5h-24c-2.209,0-4-1.791-4-4v-24
				c0-2.209,1.791-4,4-4h24c2.209,0,4,1.791,4,4v24C516,158.709,514.209,160.5,512,160.5z"/>
			<path style="fill:none;stroke:#383838;stroke-width:2;stroke-miterlimit:10;" d="M569,160.5h-44c-2.209,0-4-1.791-4-4v-24
				c0-2.209,1.791-4,4-4h44c2.209,0,4,1.791,4,4v24C573,158.709,571.209,160.5,569,160.5z"/>
			<path style="fill:none;stroke:#383838;stroke-width:2;stroke-miterlimit:10;" d="M507,197.5h24c2.209,0,4-1.791,4-4v-24
				c0-2.209-1.791-4-4-4h-24c-2.209,0-4,1.791-4,4v24C503,195.709,504.791,197.5,507,197.5z"/>
			<path style="fill:none;stroke:#383838;stroke-width:2;stroke-miterlimit:10;" d="M545,197.5h24c2.209,0,4-1.791,4-4v-24
				c0-2.209-1.791-4-4-4h-24c-2.209,0-4,1.791-4,4v24C541,195.709,542.791,197.5,545,197.5z"/>
			<path style="fill:none;stroke:#383838;stroke-width:2;stroke-miterlimit:10;" d="M469,197.5h24c2.209,0,4-1.791,4-4v-24
				c0-2.209-1.791-4-4-4h-24c-2.209,0-4,1.791-4,4v24C465,195.709,466.791,197.5,469,197.5z"/>
			<path style="fill:none;stroke:#383838;stroke-width:2;stroke-miterlimit:10;" d="M431,197.5h24c2.209,0,4-1.791,4-4v-24
				c0-2.209-1.791-4-4-4h-24c-2.209,0-4,1.791-4,4v24C427,195.709,428.791,197.5,431,197.5z"/>
			<path style="fill:none;stroke:#383838;stroke-width:2;stroke-miterlimit:10;" d="M393,197.5h24c2.209,0,4-1.791,4-4v-24
				c0-2.209-1.791-4-4-4h-24c-2.209,0-4,1.791-4,4v24C389,195.709,390.791,197.5,393,197.5z"/>
			<path style="fill:none;stroke:#383838;stroke-width:2;stroke-miterlimit:10;" d="M355,197.5h24c2.209,0,4-1.791,4-4v-24
				c0-2.209-1.791-4-4-4h-24c-2.209,0-4,1.791-4,4v24C351,195.709,352.79,197.5,355,197.5z"/>
			<path style="fill:none;stroke:#383838;stroke-width:2;stroke-miterlimit:10;" d="M317,197.5h24c2.209,0,4-1.791,4-4v-24
				c0-2.209-1.791-4-4-4h-24c-2.209,0-4,1.791-4,4v24C313,195.709,314.791,197.5,317,197.5z"/>
			<path style="fill:none;stroke:#383838;stroke-width:2;stroke-miterlimit:10;" d="M279,197.5h24c2.209,0,4-1.791,4-4v-24
				c0-2.209-1.791-4-4-4h-24c-2.209,0-4,1.791-4,4v24C275,195.709,276.791,197.5,279,197.5z"/>
			<path style="fill:none;stroke:#383838;stroke-width:2;stroke-miterlimit:10;" d="M241,197.5h24c2.209,0,4-1.791,4-4v-24
				c0-2.209-1.791-4-4-4h-24c-2.209,0-4,1.791-4,4v24C237,195.709,238.791,197.5,241,197.5z"/>
			<path style="fill:none;stroke:#383838;stroke-width:2;stroke-miterlimit:10;" d="M203,197.5h24c2.209,0,4-1.791,4-4v-24
				c0-2.209-1.791-4-4-4h-24c-2.209,0-4,1.791-4,4v24C199,195.709,200.791,197.5,203,197.5z"/>
			<path style="fill:none;stroke:#383838;stroke-width:2;stroke-miterlimit:10;" d="M165,197.5h24c2.209,0,4-1.791,4-4v-24
				c0-2.209-1.791-4-4-4h-24c-2.209,0-4,1.791-4,4v24C161,195.709,162.791,197.5,165,197.5z"/>
			<path style="fill:none;stroke:#383838;stroke-width:2;stroke-miterlimit:10;" d="M127,197.5h24c2.209,0,4-1.791,4-4v-24
				c0-2.209-1.791-4-4-4h-24c-2.209,0-4,1.791-4,4v24C123,195.709,124.791,197.5,127,197.5z"/>
			<path style="fill:none;stroke:#383838;stroke-width:2;stroke-miterlimit:10;" d="M89,197.5h24c2.209,0,4-1.791,4-4v-24
				c0-2.209-1.791-4-4-4H89c-2.209,0-4,1.791-4,4v24C85,195.709,86.791,197.5,89,197.5z"/>
			<path style="fill:none;stroke:#383838;stroke-width:2;stroke-miterlimit:10;" d="M516,234.5h53c2.209,0,4-1.791,4-4v-24
				c0-2.209-1.791-4-4-4h-53c-2.209,0-4,1.791-4,4v24C512,232.709,513.791,234.5,516,234.5z"/>
			<path style="fill:none;stroke:#383838;stroke-width:2;stroke-miterlimit:10;" d="M32,234.5h53c2.209,0,4-1.791,4-4v-24
				c0-2.209-1.791-4-4-4H32c-2.209,0-4,1.791-4,4v24C28,232.709,29.791,234.5,32,234.5z"/>
			<path style="fill:none;stroke:#383838;stroke-width:2;stroke-miterlimit:10;" d="M478,234.5h24c2.209,0,4-1.791,4-4v-24
				c0-2.209-1.791-4-4-4h-24c-2.209,0-4,1.791-4,4v24C474,232.709,475.791,234.5,478,234.5z"/>
			<path style="fill:none;stroke:#383838;stroke-width:2;stroke-miterlimit:10;" d="M440,234.5h24c2.209,0,4-1.791,4-4v-24
				c0-2.209-1.791-4-4-4h-24c-2.209,0-4,1.791-4,4v24C436,232.709,437.791,234.5,440,234.5z"/>
			<path style="fill:none;stroke:#383838;stroke-width:2;stroke-miterlimit:10;" d="M402,234.5h24c2.209,0,4-1.791,4-4v-24
				c0-2.209-1.791-4-4-4h-24c-2.209,0-4,1.791-4,4v24C398,232.709,399.791,234.5,402,234.5z"/>
			<path style="fill:none;stroke:#383838;stroke-width:2;stroke-miterlimit:10;" d="M364,234.5h24c2.209,0,4-1.791,4-4v-24
				c0-2.209-1.791-4-4-4h-24c-2.209,0-4,1.791-4,4v24C360,232.709,361.79,234.5,364,234.5z"/>
			<path style="fill:none;stroke:#383838;stroke-width:2;stroke-miterlimit:10;" d="M326,234.5h24c2.209,0,4-1.791,4-4v-24
				c0-2.209-1.791-4-4-4h-24c-2.209,0-4,1.791-4,4v24C322,232.709,323.791,234.5,326,234.5z"/>
			<path style="fill:none;stroke:#383838;stroke-width:2;stroke-miterlimit:10;" d="M288,234.5h24c2.209,0,4-1.791,4-4v-24
				c0-2.209-1.791-4-4-4h-24c-2.209,0-4,1.791-4,4v24C284,232.709,285.791,234.5,288,234.5z"/>
			<path style="fill:none;stroke:#383838;stroke-width:2;stroke-miterlimit:10;" d="M250,234.5h24c2.209,0,4-1.791,4-4v-24
				c0-2.209-1.791-4-4-4h-24c-2.209,0-4,1.791-4,4v24C246,232.709,247.791,234.5,250,234.5z"/>
			<path style="fill:none;stroke:#383838;stroke-width:2;stroke-miterlimit:10;" d="M212,234.5h24c2.209,0,4-1.791,4-4v-24
				c0-2.209-1.791-4-4-4h-24c-2.209,0-4,1.791-4,4v24C208,232.709,209.791,234.5,212,234.5z"/>
			<path style="fill:none;stroke:#383838;stroke-width:2;stroke-miterlimit:10;" d="M174,234.5h24c2.209,0,4-1.791,4-4v-24
				c0-2.209-1.791-4-4-4h-24c-2.209,0-4,1.791-4,4v24C170,232.709,171.791,234.5,174,234.5z"/>
			<path style="fill:none;stroke:#383838;stroke-width:2;stroke-miterlimit:10;" d="M136,234.5h24c2.209,0,4-1.791,4-4v-24
				c0-2.209-1.791-4-4-4h-24c-2.209,0-4,1.791-4,4v24C132,232.709,133.791,234.5,136,234.5z"/>
			<path style="fill:none;stroke:#383838;stroke-width:2;stroke-miterlimit:10;" d="M98,234.5h24c2.209,0,4-1.791,4-4v-24
				c0-2.209-1.791-4-4-4H98c-2.209,0-4,1.791-4,4v24C94,232.709,95.791,234.5,98,234.5z"/>
			<path style="fill:none;stroke:#383838;stroke-width:2;stroke-miterlimit:10;" d="M498,271.5h71c2.209,0,4-1.791,4-4v-24
				c0-2.209-1.791-4-4-4h-71c-2.209,0-4,1.791-4,4v24C494,269.709,495.791,271.5,498,271.5z"/>
			<path style="fill:none;stroke:#383838;stroke-width:2;stroke-miterlimit:10;" d="M460,271.5h24c2.209,0,4-1.791,4-4v-24
				c0-2.209-1.791-4-4-4h-24c-2.209,0-4,1.791-4,4v24C456,269.709,457.791,271.5,460,271.5z"/>
			<path style="fill:none;stroke:#383838;stroke-width:2;stroke-miterlimit:10;" d="M422,271.5h24c2.209,0,4-1.791,4-4v-24
				c0-2.209-1.791-4-4-4h-24c-2.209,0-4,1.791-4,4v24C418,269.709,419.791,271.5,422,271.5z"/>
			<path style="fill:none;stroke:#383838;stroke-width:2;stroke-miterlimit:10;" d="M384,271.5h24c2.209,0,4-1.791,4-4v-24
				c0-2.209-1.791-4-4-4h-24c-2.209,0-4,1.791-4,4v24C380,269.709,381.79,271.5,384,271.5z"/>
			<path style="fill:none;stroke:#383838;stroke-width:2;stroke-miterlimit:10;" d="M346,271.5h24c2.209,0,4-1.791,4-4v-24
				c0-2.209-1.791-4-4-4h-24c-2.209,0-4,1.791-4,4v24C342,269.709,343.79,271.5,346,271.5z"/>
			<path style="fill:none;stroke:#383838;stroke-width:2;stroke-miterlimit:10;" d="M308,271.5h24c2.209,0,4-1.791,4-4v-24
				c0-2.209-1.791-4-4-4h-24c-2.209,0-4,1.791-4,4v24C304,269.709,305.791,271.5,308,271.5z"/>
			<path style="fill:none;stroke:#383838;stroke-width:2;stroke-miterlimit:10;" d="M270,271.5h24c2.209,0,4-1.791,4-4v-24
				c0-2.209-1.791-4-4-4h-24c-2.209,0-4,1.791-4,4v24C266,269.709,267.791,271.5,270,271.5z"/>
			<path style="fill:none;stroke:#383838;stroke-width:2;stroke-miterlimit:10;" d="M232,271.5h24c2.209,0,4-1.791,4-4v-24
				c0-2.209-1.791-4-4-4h-24c-2.209,0-4,1.791-4,4v24C228,269.709,229.791,271.5,232,271.5z"/>
			<path style="fill:none;stroke:#383838;stroke-width:2;stroke-miterlimit:10;" d="M194,271.5h24c2.209,0,4-1.791,4-4v-24
				c0-2.209-1.791-4-4-4h-24c-2.209,0-4,1.791-4,4v24C190,269.709,191.791,271.5,194,271.5z"/>
			<path style="fill:none;stroke:#383838;stroke-width:2;stroke-miterlimit:10;" d="M156,271.5h24c2.209,0,4-1.791,4-4v-24
				c0-2.209-1.791-4-4-4h-24c-2.209,0-4,1.791-4,4v24C152,269.709,153.791,271.5,156,271.5z"/>
			<path style="fill:none;stroke:#383838;stroke-width:2;stroke-miterlimit:10;" d="M118,271.5h24c2.209,0,4-1.791,4-4v-24
				c0-2.209-1.791-4-4-4h-24c-2.209,0-4,1.791-4,4v24C114,269.709,115.791,271.5,118,271.5z"/>
			<path style="fill:none;stroke:#383838;stroke-width:2;stroke-miterlimit:10;" d="M32,271.5h72c2.209,0,4-1.791,4-4v-24
				c0-2.209-1.791-4-4-4H32c-2.209,0-4,1.791-4,4v24C28,269.709,29.791,271.5,32,271.5z"/>
			<path style="fill:none;stroke:#383838;stroke-width:2;stroke-miterlimit:10;" d="M32,197.5h44c2.209,0,4-1.791,4-4v-24
				c0-2.209-1.791-4-4-4H32c-2.209,0-4,1.791-4,4v24C28,195.709,29.791,197.5,32,197.5z"/>
			<path style="fill:none;stroke:#383838;stroke-width:2;stroke-miterlimit:10;" d="M569,123.5h-24c-2.209,0-4-1.791-4-4v-24
				c0-2.209,1.791-4,4-4h16c6.627,0,12,5.373,12,12v16C573,121.709,571.209,123.5,569,123.5z"/>
			<path style="fill:none;stroke:#383838;stroke-width:2;stroke-miterlimit:10;" d="M146,276.5h34c2.209,0,4,1.791,4,4v24
				c0,2.209-1.791,4-4,4h-34c-2.209,0-4-1.791-4-4v-24C142,278.291,143.791,276.5,146,276.5z"/>
			<path style="fill:none;stroke:#383838;stroke-width:2;stroke-miterlimit:10;" d="M194,276.5h176c2.209,0,4,1.791,4,4v24
				c0,2.209-1.791,4-4,4H194c-2.209,0-4-1.791-4-4v-24C190,278.291,191.791,276.5,194,276.5z"/>
			<path style="fill:none;stroke:#383838;stroke-width:2;stroke-miterlimit:10;" d="M108,276.5h24c2.209,0,4,1.791,4,4v24
				c0,2.209-1.791,4-4,4h-24c-2.209,0-4-1.791-4-4v-24C104,278.291,105.791,276.5,108,276.5z"/>
			<path style="fill:none;stroke:#383838;stroke-width:2;stroke-miterlimit:10;" d="M70,276.5h24c2.209,0,4,1.791,4,4v24
				c0,2.209-1.791,4-4,4H70c-2.209,0-4-1.791-4-4v-24C66,278.291,67.791,276.5,70,276.5z"/>
			<path style="fill:none;stroke:#383838;stroke-width:2;stroke-miterlimit:10;" d="M418,276.5h-34c-2.209,0-4,1.791-4,4v24
				c0,2.209,1.791,4,4,4h34c2.209,0,4-1.791,4-4v-24C422,278.291,420.209,276.5,418,276.5z"/>
			<path style="fill:none;stroke:#383838;stroke-width:2;stroke-miterlimit:10;" d="M456,276.5h-24c-2.209,0-4,1.791-4,4v24
				c0,2.209,1.791,4,4,4h24c2.209,0,4-1.791,4-4v-24C460,278.291,458.209,276.5,456,276.5z"/>
			<path style="fill:none;stroke:#383838;stroke-width:2;stroke-miterlimit:10;" d="M494,276.5h-24c-2.209,0-4,1.791-4,4v24
				c0,2.209,1.791,4,4,4h24c2.209,0,4-1.791,4-4v-24C498,278.291,496.209,276.5,494,276.5z"/>
			<path style="fill:none;stroke:#383838;stroke-width:2;stroke-miterlimit:10;" d="M532,276.5h-24c-2.209,0-4,1.791-4,4v24
				c0,2.209,1.791,4,4,4h24c2.209,0,4-1.791,4-4v-24C536,278.291,534.209,276.5,532,276.5z"/>
			<path style="fill:none;stroke:#383838;stroke-width:2;stroke-miterlimit:10;" d="M569,276.5h-24c-2.209,0-4,1.791-4,4v24
				c0,2.209,1.791,4,4,4h16c6.627,0,12-5.373,12-12v-16C573,278.291,571.209,276.5,569,276.5z"/>
			<path style="fill:none;stroke:#383838;stroke-width:2;stroke-miterlimit:10;" d="M32,276.5h24c2.209,0,4,1.791,4,4v24
				c0,2.209-1.791,4-4,4H40c-6.627,0-12-5.373-12-12v-16C28,278.291,29.791,276.5,32,276.5z"/>
			<line style="fill:none;stroke:#383838;stroke-width:2;stroke-miterlimit:10;" x1="504" y1="292.5" x2="536" y2="292.5"/>
		</g>
	</g>
</g>
</svg>
